<?xml version="1.0" encoding="UTF-8"?><svg id="Layer_1" xmlns="http://www.w3.org/2000/svg" viewBox="0 0 649.69 109.37"><path d="M78.68,109.37H0V0h22.2v89.3h56.48v20.08Z" style="fill:#fff;"/><path d="M133.53,89.3h22.86v20.08h-67.91v-20.08h22.85V20.08h-22.85V0h67.91v20.08h-22.86v69.22Z" style="fill:#fff;"/><path d="M236.54,53.55c8.98,1.14,19.1,9.96,19.1,25.47,0,17.79-10.94,30.36-35.26,30.36h-54.03V0h53.87c19.75,0,32.32,12.08,32.32,30.36,0,13.88-9.47,21.39-16,22.53v.65ZM188.54,45.71h27.75c8.81,0,14.69-5.55,14.69-14.04,0-7.67-6.04-12.73-13.22-12.73h-29.22v26.77ZM217.93,90.44c9.96,0,15.02-5.39,15.02-13.55s-5.88-13.55-14.2-13.55h-30.2v27.1h29.38Z" style="fill:#fff;"/><path d="M347.21,109.37h-83.09V0h82.77v20.08h-60.57v24.65h55.83v19.75h-55.83v24.81h60.89v20.08Z" style="fill:#fff;"/><path d="M426.22,109.37l-36.08-40.16h-11.59v40.16h-22.2V0h52.4c23.51,0,39.18,13.88,39.18,34.61,0,18.28-12.24,31.34-31.34,34.12l36.73,40.65h-27.1ZM408.75,49.14c10.28,0,17.14-5.88,17.14-14.53s-6.86-14.53-17.14-14.53h-30.2v29.06h30.2Z" style="fill:#fff;"/><path d="M649.69,109.37h-78.68V0h22.2v89.3h56.48v20.08Z" style="fill:#fff;"/><path d="M521.39,0h-20.73l-47.34,109.37h24l9.63-23.34h48.32l9.47,23.34h24L521.39,0ZM533.45,66.27c-12.19,2.42-18.42-2.14-21.57-6.89-.41-.62-1.31-.62-1.72,0-3.15,4.74-9.38,9.31-21.57,6.89-.61-.12-.98-.76-.78-1.35,3.9-11.47,10.71-14.72,16.32-15.21.69-.06,1.13-.77.87-1.42-4.3-10.79,3.02-18.22,5.35-20.23.39-.33.96-.33,1.35,0,2.33,2.01,9.66,9.44,5.35,20.23-.26.65.18,1.35.87,1.42,5.6.49,12.42,3.73,16.32,15.21.2.59-.16,1.23-.78,1.35Z" style="fill:#fff;"/></svg>